HIERARCHY
ROOT pelvis
{
	OFFSET 0.003123 -0.351407 0.012037
	CHANNELS 6 Xposition Yposition Zposition Zrotation Yrotation Xrotation 
	JOINT left_hip
	{
		OFFSET 0.058189 -0.092763 -0.026001
		CHANNELS 3 Zrotation Yrotation Xrotation
		JOINT left_knee
		{
			OFFSET 0.054695 -0.378753 -0.009396
			CHANNELS 3 Zrotation Yrotation Xrotation
			JOINT left_ankle
			{
				OFFSET -0.043453 -0.403059 -0.031876
				CHANNELS 3 Zrotation Yrotation Xrotation
				JOINT left_foot
				{
					OFFSET 0.047257 -0.057997 0.118216
					CHANNELS 3 Zrotation Yrotation Xrotation
					End Site
					{
						OFFSET 0.000000 0.000000 0.000000
					}
				}
			}
		}
	}
	JOINT right_hip
	{
		OFFSET -0.063267 -0.103908 -0.021250
		CHANNELS 3 Zrotation Yrotation Xrotation
		JOINT right_knee
		{
			OFFSET -0.044210 -0.362380 -0.016824
			CHANNELS 3 Zrotation Yrotation Xrotation
			JOINT right_ankle
			{
				OFFSET 0.015417 -0.410728 -0.020192
				CHANNELS 3 Zrotation Yrotation Xrotation
				JOINT right_foot
				{
					OFFSET -0.038812 -0.058328 0.119049
					CHANNELS 3 Zrotation Yrotation Xrotation
					End Site
					{
						OFFSET 0.000000 0.000000 0.000000
					}
				}
			}
		}
	}
	JOINT spine_1
	{
		OFFSET -0.002763 0.109891 -0.027618
		CHANNELS 3 Zrotation Yrotation Xrotation
		JOINT spine_2
		{
			OFFSET 0.009448 0.131853 -0.005940
			CHANNELS 3 Zrotation Yrotation Xrotation
			JOINT spine_3
			{
				OFFSET -0.011330 0.052235 0.028447
				CHANNELS 3 Zrotation Yrotation Xrotation
				JOINT neck
				{
					OFFSET -0.012164 0.165167 -0.031615
					CHANNELS 3 Zrotation Yrotation Xrotation
					JOINT head
					{
						OFFSET 0.024783 0.160452 0.020737
						CHANNELS 3 Zrotation Yrotation Xrotation
						End Site
						{
							OFFSET 0.000000 0.000000 0.000000
						}
					}
				}
				JOINT left_collar
				{
					OFFSET 0.046364 0.084944 -0.007220
					CHANNELS 3 Zrotation Yrotation Xrotation
					JOINT left_shoulder
					{
						OFFSET 0.119239 0.057728 -0.015461
						CHANNELS 3 Zrotation Yrotation Xrotation
						JOINT left_elbow
						{
							OFFSET 0.254123 -0.072151 -0.042459
							CHANNELS 3 Zrotation Yrotation Xrotation
							JOINT left_wrist
							{
								OFFSET 0.251987 0.023221 -0.002472
								CHANNELS 3 Zrotation Yrotation Xrotation
								JOINT left_index_1
								{
									OFFSET 0.101902 -0.008688 0.019351
									CHANNELS 3 Zrotation Yrotation Xrotation
									JOINT left_index_2
									{
										OFFSET 0.030149 -0.011154 0.001151
										CHANNELS 3 Zrotation Yrotation Xrotation
										JOINT left_index_3
										{
											OFFSET 0.006504 -0.021577 -0.002433
											CHANNELS 3 Zrotation Yrotation Xrotation
											End Site
											{
												OFFSET 0.000000 0.000000 0.000000
											}
										}
									}
								}
								JOINT left_middle_1
								{
									OFFSET 0.109398 -0.006328 -0.003981
									CHANNELS 3 Zrotation Yrotation Xrotation
									JOINT left_middle_2
									{
										OFFSET 0.026472 -0.015218 -0.004641
										CHANNELS 3 Zrotation Yrotation Xrotation
										JOINT left_middle_3
										{
											OFFSET 0.005022 -0.023347 -0.001911
											CHANNELS 3 Zrotation Yrotation Xrotation
											End Site
											{
												OFFSET 0.000000 0.000000 0.000000
											}
										}
									}
								}
								JOINT left_pinky_1
								{
									OFFSET 0.084047 -0.014539 -0.043750
									CHANNELS 3 Zrotation Yrotation Xrotation
									JOINT left_pinky_2
									{
										OFFSET 0.012124 -0.014448 -0.005375
										CHANNELS 3 Zrotation Yrotation Xrotation
										JOINT left_pinky_3
										{
											OFFSET 0.003798 -0.018853 0.000167
											CHANNELS 3 Zrotation Yrotation Xrotation
											End Site
											{
												OFFSET 0.000000 0.000000 0.000000
											}
										}
									}
								}
								JOINT left_ring_1
								{
									OFFSET 0.097444 -0.009268 -0.027345
									CHANNELS 3 Zrotation Yrotation Xrotation
									JOINT left_ring_2
									{
										OFFSET 0.023561 -0.016057 -0.001895
										CHANNELS 3 Zrotation Yrotation Xrotation
										JOINT left_ring_3
										{
											OFFSET 0.004257 -0.023548 0.000814
											CHANNELS 3 Zrotation Yrotation Xrotation
											End Site
											{
												OFFSET 0.000000 0.000000 0.000000
											}
										}
									}
								}
								JOINT left_thumb_1
								{
									OFFSET 0.040636 -0.017977 0.025611
									CHANNELS 3 Zrotation Yrotation Xrotation
									JOINT left_thumb_2
									{
										OFFSET 0.021637 -0.017639 0.011623
										CHANNELS 3 Zrotation Yrotation Xrotation
										JOINT left_thumb_3
										{
											OFFSET 0.024002 -0.008356 0.006548
											CHANNELS 3 Zrotation Yrotation Xrotation
											End Site
											{
												OFFSET 0.000000 0.000000 0.000000
											}
										}
									}
								}
							}
						}
					}
				}
				JOINT right_collar
				{
					OFFSET -0.047695 0.084339 -0.013400
					CHANNELS 3 Zrotation Yrotation Xrotation
					JOINT right_shoulder
					{
						OFFSET -0.102578 0.053524 -0.012669
						CHANNELS 3 Zrotation Yrotation Xrotation
						JOINT right_elbow
						{
							OFFSET -0.271150 -0.036492 -0.026467
							CHANNELS 3 Zrotation Yrotation Xrotation
							JOINT right_wrist
							{
								OFFSET -0.249267 -0.004533 -0.015325
								CHANNELS 3 Zrotation Yrotation Xrotation
								JOINT right_index_1
								{
									OFFSET -0.099881 -0.011783 0.019600
									CHANNELS 3 Zrotation Yrotation Xrotation
									JOINT right_index_2
									{
										OFFSET -0.030148 -0.011154 0.001151
										CHANNELS 3 Zrotation Yrotation Xrotation
										JOINT right_index_3
										{
											OFFSET -0.006505 -0.021577 -0.002432
											CHANNELS 3 Zrotation Yrotation Xrotation
											End Site
											{
												OFFSET 0.000000 0.000000 0.000000
											}
										}
									}
								}
								JOINT right_middle_1
								{
									OFFSET -0.107376 -0.009422 -0.003734
									CHANNELS 3 Zrotation Yrotation Xrotation
									JOINT right_middle_2
									{
										OFFSET -0.026472 -0.015218 -0.004641
										CHANNELS 3 Zrotation Yrotation Xrotation
										JOINT right_middle_3
										{
											OFFSET -0.005022 -0.023347 -0.001911
											CHANNELS 3 Zrotation Yrotation Xrotation
											End Site
											{
												OFFSET 0.000000 0.000000 0.000000
											}
										}
									}
								}
								JOINT right_pinky_1
								{
									OFFSET -0.082027 -0.017634 -0.043503
									CHANNELS 3 Zrotation Yrotation Xrotation
									JOINT right_pinky_2
									{
										OFFSET -0.012123 -0.014448 -0.005374
										CHANNELS 3 Zrotation Yrotation Xrotation
										JOINT right_pinky_3
										{
											OFFSET -0.003798 -0.018852 0.000167
											CHANNELS 3 Zrotation Yrotation Xrotation
											End Site
											{
												OFFSET 0.000000 0.000000 0.000000
											}
										}
									}
								}
								JOINT right_ring_1
								{
									OFFSET -0.095423 -0.012362 -0.027099
									CHANNELS 3 Zrotation Yrotation Xrotation
									JOINT right_ring_2
									{
										OFFSET -0.023561 -0.016057 -0.001895
										CHANNELS 3 Zrotation Yrotation Xrotation
										JOINT right_ring_3
										{
											OFFSET -0.004257 -0.023548 0.000816
											CHANNELS 3 Zrotation Yrotation Xrotation
											End Site
											{
												OFFSET 0.000000 0.000000 0.000000
											}
										}
									}
								}
								JOINT right_thumb_1
								{
									OFFSET -0.038613 -0.021074 0.025861
									CHANNELS 3 Zrotation Yrotation Xrotation
									JOINT right_thumb_2
									{
										OFFSET -0.021636 -0.017639 0.011623
										CHANNELS 3 Zrotation Yrotation Xrotation
										JOINT right_thumb_3
										{
											OFFSET -0.024004 -0.008353 0.006547
											CHANNELS 3 Zrotation Yrotation Xrotation
											End Site
											{
												OFFSET 0.000000 0.000000 0.000000
											}
										}
									}
								}
							}
						}
					}
				}
			}
		}
	}
}
MOTION
Frames: 4
Frame Time: 0.050000
-0.085245 0.938845 0.764801 -146.653463 -79.586177 138.739552 -0.319184 2.239242 -10.627055 16.114326 7.909229 33.655193 -41.199128 -29.805889 8.245089 0.000000 0.000000 0.000000 9.231778 -0.086423 9.215950 7.505625 3.052893 2.199077 -38.516729 -16.551967 23.680569 0.000000 0.000000 0.000000 -1.358151 -0.559710 13.386407 4.112836 -1.958103 -21.554934 -7.100668 -30.384132 36.566557 0.004788 0.640546 -3.885127 0.000000 0.000000 0.000000 -2.676982 13.727257 9.043694 -66.879907 -29.905482 31.723834 -7.237836 -26.650831 3.374793 -30.107953 -6.910217 15.456016 137.975577 30.109129 -141.561022 -32.905555 -35.820990 -52.967246 0.000000 0.000000 0.000000 -162.425961 31.722271 -55.805587 44.162649 1.740233 -50.533034 0.000000 0.000000 0.000000 -118.948550 -19.379648 -26.243447 42.786271 -1.850505 9.879433 0.000000 0.000000 0.000000 -142.476899 -18.130643 2.741746 74.935721 4.359784 -2.912064 0.000000 0.000000 0.000000 -100.628364 -6.319790 37.008972 150.596048 18.840004 76.933477 0.000000 0.000000 0.000000 -7.709428 13.722927 -7.641004 59.623831 1.986394 -40.184364 45.579001 16.690717 -3.345683 5.126311 -4.810963 52.644816 42.711378 -35.107501 -2.987835 39.730250 -38.274228 5.481688 0.000000 0.000000 0.000000 45.894144 -31.657052 -12.444466 56.352539 -25.692081 1.716010 0.000000 0.000000 0.000000 23.896610 58.920141 6.848805 127.726034 -10.029107 -56.788902 0.000000 0.000000 0.000000 44.118720 -8.196858 -13.340068 79.677692 2.974130 3.306230 0.000000 0.000000 0.000000 4.006312 -43.813544 31.344798 -42.948194 15.303807 -36.647811 0.000000 0.000000 0.000000 
-0.091370 0.940134 0.751602 -148.353666 -77.603441 140.919687 0.570571 2.367084 -9.241343 10.468436 8.252398 29.331566 -32.983472 -23.841737 8.704133 0.000000 0.000000 0.000000 8.084422 0.023033 8.453303 12.157392 4.746332 3.718082 -36.841954 -17.023655 23.405013 0.000000 0.000000 0.000000 -1.564620 -0.467052 12.631965 2.553500 -2.008518 -19.978734 -4.672170 -29.979614 36.271650 0.425089 0.931738 -1.950713 0.000000 0.000000 0.000000 -2.398618 14.792177 7.403317 -68.045221 -28.772329 32.532426 -8.018817 -25.680279 3.399969 -24.493123 -11.530242 13.940481 155.790873 37.631105 -110.986057 9.240656 -25.336362 -77.100302 0.000000 0.000000 0.000000 -159.670086 30.890208 -54.237613 46.470093 2.537634 -43.015630 0.000000 0.000000 0.000000 -121.332189 -12.686590 -26.203892 39.800407 -1.348191 8.972921 0.000000 0.000000 0.000000 -140.816829 -17.588671 3.411028 68.558350 3.415696 -1.610322 0.000000 0.000000 0.000000 -107.297561 -7.063980 42.505717 150.896260 21.103725 76.555094 0.000000 0.000000 0.000000 -7.335420 15.744732 -5.638864 58.627364 5.658270 -38.335364 44.307593 17.207172 -2.998269 4.080528 -4.392102 51.415086 46.025456 -39.271942 -4.139869 46.828466 -23.876516 -4.763137 0.000000 0.000000 0.000000 53.508616 -34.109063 -17.695425 50.263934 -20.605679 -2.029895 0.000000 0.000000 0.000000 52.042239 62.960314 28.224932 128.592967 -6.142700 -74.318867 0.000000 0.000000 0.000000 55.765864 -18.903247 -29.017235 70.362129 -0.056920 16.847078 0.000000 0.000000 0.000000 10.016099 -41.211500 26.178466 -45.082673 9.188404 -34.873769 0.000000 0.000000 0.000000 
-0.101734 0.939006 0.741043 -142.660537 -78.499534 134.819730 0.690313 1.805385 -6.544434 8.524090 7.585582 26.727179 -22.342333 -19.127028 1.526564 0.000000 0.000000 0.000000 6.652355 0.156356 7.828004 13.564371 4.671406 7.342281 -26.410908 -15.656440 17.345416 0.000000 0.000000 0.000000 -1.726788 -0.431146 12.525935 2.879879 -2.023234 -19.434746 -4.225273 -30.735632 36.944766 0.076972 1.193627 -0.873703 0.000000 0.000000 0.000000 -1.079681 13.231615 7.799387 -70.662498 -29.844195 35.440241 -6.858845 -23.659864 2.610471 -24.479654 -10.032955 12.458565 150.558704 34.094935 -116.006105 16.003206 -26.957393 -92.650846 0.000000 0.000000 0.000000 -158.774273 28.964389 -51.392217 56.007354 3.766165 -39.980916 0.000000 0.000000 0.000000 -121.598942 -13.202594 -26.419818 41.356335 -1.555421 9.044980 0.000000 0.000000 0.000000 -139.187262 -12.613629 -0.396119 65.838850 4.003739 -4.432466 0.000000 0.000000 0.000000 -111.458678 -11.281083 43.961442 154.320000 16.847321 82.314758 0.000000 0.000000 0.000000 -8.259772 14.255240 -5.006994 59.206494 7.300472 -38.811632 43.929405 16.486416 -2.825965 5.176090 -3.684573 49.235700 35.596868 -32.185642 -0.283281 34.909971 -27.531781 3.597837 0.000000 0.000000 0.000000 40.895257 -28.008138 -10.329202 51.962522 -25.322637 2.492375 0.000000 0.000000 0.000000 10.894199 44.407758 -5.382342 56.406905 50.389772 -42.446741 0.000000 0.000000 0.000000 37.488944 -9.734159 -12.454270 76.806930 -9.684603 6.107457 0.000000 0.000000 0.000000 -1.799175 -35.222637 29.269597 -25.964403 15.022666 -23.156013 0.000000 0.000000 0.000000 
-0.110214 0.937716 0.730484 -137.091047 -78.583047 128.735062 3.540636 2.369641 -3.287513 5.358714 6.980755 23.176292 -22.744144 -19.396547 -0.653653 0.000000 0.000000 0.000000 4.912345 0.145435 5.410785 14.261339 4.610833 11.731786 -7.720093 -11.067358 16.597674 0.000000 0.000000 0.000000 -1.355692 -0.587763 12.535200 3.198502 -2.032886 -19.260405 -3.648656 -29.893206 37.521663 0.754140 0.986550 -1.092051 0.000000 0.000000 0.000000 -2.067257 13.725363 7.001340 -71.010220 -30.599539 34.682436 -6.599728 -22.475053 2.423160 -25.374136 -6.714465 11.977136 152.816407 34.665314 -108.229174 12.830794 -32.749709 -94.795984 0.000000 0.000000 0.000000 -161.060426 32.609093 -56.197517 50.344574 3.278626 -47.760645 0.000000 0.000000 0.000000 -119.159212 -11.674955 -26.663827 41.863516 -1.805985 9.920094 0.000000 0.000000 0.000000 -140.891475 -11.800922 -1.441367 71.846213 4.086439 -3.156236 0.000000 0.000000 0.000000 -102.494101 -3.302571 40.112918 150.606098 20.444146 76.526484 0.000000 0.000000 0.000000 -8.199558 13.901235 -4.273138 59.030619 7.475870 -38.040694 44.637751 17.624827 -2.488690 2.790806 -2.219262 48.480727 34.955636 -30.254356 -0.704616 24.211169 -31.584252 13.962044 0.000000 0.000000 0.000000 38.008390 -26.432768 -9.158424 51.270478 -25.940174 9.494734 0.000000 0.000000 0.000000 1.882965 23.001635 -12.627451 87.583691 52.844298 -16.972821 0.000000 0.000000 0.000000 34.379305 -14.747913 -13.697007 80.331479 -9.787423 11.834359 0.000000 0.000000 0.000000 -3.610332 -35.629343 30.519778 -25.659421 14.841390 -22.713884 0.000000 0.000000 0.000000 
